<svg width="15" height="12" viewBox="0 0 15 12" fill="none" xmlns="http://www.w3.org/2000/svg">
<path d="M5.87747 1.34739L3.74908 3.483H1.30754C0.990327 3.483 0.733398 3.74086 0.733398 4.05922V7.51654C0.733398 7.83466 0.990327 8.09276 1.30754 8.09276H3.74908L5.87747 10.2284C6.23702 10.5892 6.85757 10.3357 6.85757 9.82094V1.75482C6.85757 1.23959 6.23654 0.98701 5.87747 1.34739Z" fill="#0AA86E"/>
<path d="M8.825 3.94197C8.54798 3.78999 8.19847 3.89011 8.04489 4.16885C7.89202 4.4476 7.99321 4.79789 8.27096 4.95179C8.5798 5.12202 8.77165 5.44254 8.77165 5.78755C8.77165 6.1328 8.5798 6.45309 8.27119 6.62331C7.99345 6.77721 7.89226 7.1275 8.04513 7.40625C8.19895 7.6862 8.5487 7.78559 8.82524 7.63314C9.50057 7.25979 9.92018 6.55272 9.92018 5.78731C9.92018 5.0219 9.50058 4.31507 8.825 3.94197Z" fill="#0AA86E"/>
<path d="M12.2166 5.78779C12.2166 4.26249 11.4497 2.86011 10.1648 2.0366C9.8971 1.86517 9.54208 1.94488 9.37247 2.2157C9.20286 2.48653 9.28205 2.84498 9.54974 3.01665C10.5007 3.62624 11.0683 4.662 11.0683 5.78779C11.0683 6.91358 10.5007 7.94933 9.54974 8.55893C9.28205 8.73035 9.20286 9.08881 9.37247 9.35987C9.52821 9.60861 9.87772 9.72337 10.1648 9.53898C11.4497 8.71547 12.2166 7.31333 12.2166 5.78779Z" fill="#0AA86E"/>
<path d="M11.4592 0.120818C11.192 -0.0551689 10.8329 0.0190195 10.6576 0.287682C10.482 0.555864 10.5566 0.916242 10.8238 1.09223C12.4092 2.13639 13.3553 3.8917 13.3553 5.78794C13.3553 7.68419 12.4092 9.4395 10.8238 10.4837C10.5566 10.6594 10.482 11.02 10.6576 11.288C10.826 11.5451 11.1822 11.6375 11.4592 11.4548C13.3711 10.1953 14.5129 8.0765 14.5129 5.7877C14.5129 3.49891 13.3711 1.38034 11.4592 0.120818Z" fill="#0AA86E"/>
</svg>
